<svg width="1920" height="742" viewBox="0 0 1920 742" fill="none" xmlns="http://www.w3.org/2000/svg">
<path d="M-331.74 539.673C-217.673 487.5 -112.785 406.806 -2.81724 341.391C107.137 275.975 239.765 165.982 347.023 238.567C547.702 374.373 583.845 741 927.189 741C1190.81 741 1315.71 444.869 1471.12 315.614C1759.4 75.8341 2067.45 329.6 2267.66 658.2M-332.189 514.02C-217.128 475.727 -109.612 404.646 3.58338 348.348C119.121 290.899 257.197 188.341 365.843 257.51C567.258 385.721 609.447 725.403 945.819 727.049C1204.25 728.342 1327.95 454.128 1484.79 330.892C1510.57 310.639 1536.36 293.732 1562.37 280.49C1826.7 146.755 2092.04 360.457 2269.15 637.858M-332.625 488.367C-216.583 463.954 -106.248 402.663 10.0112 355.324C126.27 307.984 274.628 210.755 384.677 276.453C586.773 397.122 635.063 709.806 964.476 713.099C1217.73 715.684 1340.12 463.334 1498.5 346.171C1524.08 327.263 1549.53 311.046 1575.36 298.477C1839.42 171.364 2098.63 361.715 2270.66 617.534M-333.061 462.714C-216.025 452.163 -102.735 400.857 16.4254 362.281C143.661 321.102 292.019 233.149 403.498 295.396C606.247 408.576 660.666 694.226 983.106 699.148C1231.19 703.025 1352.17 472.522 1512.18 361.449C1537.52 343.851 1562.65 328.272 1588.32 316.446C1851.84 194.962 2105.18 362.953 2272.14 597.192M-333.51 437.062C-215.494 440.391 -99.0985 399.265 22.826 369.257C156.122 336.452 309.382 255.616 422.318 314.34C625.666 420.084 686.268 678.63 1001.75 685.198C1244.66 690.368 1364.16 481.64 1525.86 376.728C1550.96 360.44 1575.79 345.569 1601.28 334.416C1864.48 219.271 2111.73 364.211 2273.64 576.833M-333.946 411.409C-214.936 428.617 -95.367 397.884 29.2539 376.214C168.705 351.96 326.745 278.082 441.152 333.283C645.059 431.662 711.884 663.033 1020.39 671.247C1258.13 677.709 1376.05 490.704 1539.55 392.006C1564.4 377.011 1588.94 362.866 1614.25 352.403C1877.13 243.631 2118.3 365.468 2275.13 556.509M-334.395 385.756C-214.404 416.826 -91.5811 396.697 35.6545 383.189C181.329 367.716 344.068 300.583 459.959 352.225C664.397 443.311 737.473 647.435 1039.01 657.296C1271.57 665.033 1387.83 499.68 1553.21 407.266C1577.79 393.528 1602.06 380.144 1627.18 370.354C1889.77 267.973 2124.84 366.689 2276.6 536.149M-334.831 360.121C-213.846 405.071 -87.7136 383.172 42.0823 390.165C193.981 398.344 361.404 323.138 478.807 371.186C683.735 455.031 763.102 631.856 1057.68 643.364C1285.06 652.393 1399.59 508.567 1566.93 422.562C1591.23 410.081 1615.25 397.458 1640.19 388.341C1902.48 292.404 2131.44 367.964 2278.12 515.826M-335.267 334.469C-213.301 393.298 -83.4239 382.127 48.4965 397.14C206.128 415.074 378.699 345.728 497.628 390.129C703.032 466.822 788.705 616.277 1076.31 629.413C1298.52 639.735 1411.22 517.331 1580.61 437.841C1604.6 426.581 1628.39 414.773 1653.14 406.31C1915.15 316.836 2137.99 369.203 2279.61 495.467M-335.716 308.816C-212.757 381.507 -80.101 394.236 54.9106 404.097C219.392 416.1 395.994 368.336 516.448 409.072C722.302 478.666 814.307 600.68 1094.95 615.445C1311.97 627.058 1422.81 525.935 1594.29 453.101C1617.99 443.046 1641.54 432.069 1666.1 424.28C1927.86 341.302 2144.54 370.442 2281.09 475.125M-336.152 283.163C-212.212 369.735 -76.2878 393.705 61.325 411.055C232.044 432.583 413.276 390.979 535.282 427.998C741.558 490.581 839.923 585.066 1113.6 601.477C1325.44 614.383 1434.32 534.38 1607.98 468.362C1631.36 459.475 1654.69 449.366 1679.07 442.232C1940.57 365.804 2151.11 371.682 2282.59 454.766M-336.588 257.51C-211.654 357.961 -72.502 393.28 67.7527 418.03C244.681 449.242 430.557 413.692 554.116 446.958C760.814 502.583 865.539 569.485 1132.24 587.543C1338.91 601.742 1445.79 542.682 1621.67 483.658C1644.72 475.921 1667.85 466.697 1692.03 460.218C1953.3 390.359 2157.67 372.938 2284.09 434.441M-337.037 231.858C-211.122 346.171 -68.7705 392.962 74.1534 424.988C257.251 466.008 447.812 436.425 572.923 465.884C780.016 514.64 891.114 553.872 1150.87 573.576C1352.37 589.067 1457.2 550.756 1635.34 498.919C1658.07 492.298 1680.99 483.995 1704.98 478.188C1966.01 414.968 2164.22 374.178 2285.56 414.083M-337.473 206.204C-210.564 334.397 -65.0664 392.714 80.5811 431.963C269.78 482.932 465.08 459.227 591.771 484.844C799.272 526.784 916.744 538.309 1169.53 559.642C1365.85 576.426 1468.6 558.651 1649.05 514.215C1671.46 508.691 1694.17 501.344 1717.98 496.174C1978.77 439.611 2170.81 375.452 2287.08 393.758M-337.909 180.552C-210.019 322.625 -61.4031 392.555 86.9954 438.921C282.254 499.946 482.348 482.047 610.591 503.77C818.488 538.982 942.346 522.695 1188.16 545.674C1379.3 563.75 1479.95 566.299 1662.73 529.475C1684.79 525.032 1707.31 518.641 1730.93 514.126C1991.5 464.29 2177.35 376.674 2288.55 373.399M-338.358 154.899C-209.475 310.834 -57.7942 392.43 93.4095 445.896C294.674 517.065 499.602 504.938 629.411 522.73C837.717 551.269 967.948 507.115 1206.8 531.741C1392.77 551.109 1491.33 573.717 1676.41 544.771C1698.15 541.372 1720.47 536.008 1743.89 532.131C2004.23 489.058 2183.91 377.949 2290.05 353.093M-338.794 129.247C-208.93 299.061 -54.2126 392.342 99.8239 452.854C307.026 534.238 516.87 527.847 648.246 541.656C856.96 563.591 993.565 491.501 1225.44 517.773C1406.24 538.434 1502.73 580.852 1690.1 560.032C1711.49 557.66 1733.62 553.323 1756.87 550.083C2016.98 513.826 2190.49 379.188 2291.55 332.716M-339.23 103.594C-208.385 287.288 -50.6855 392.307 106.238 459.811C319.337 551.481 534.152 550.809 667.066 560.599C876.202 576.001 1019.17 475.904 1244.09 503.823C1419.71 525.758 1514.15 587.739 1703.79 575.311C1724.87 573.93 1746.78 570.654 1769.83 568.052C2029.73 538.664 2197.05 380.427 2293.05 312.374M-339.679 77.9403C-207.84 275.497 -47.1992 392.288 112.652 466.786C331.58 568.813 551.433 573.823 685.887 579.541C895.458 588.464 1044.77 460.324 1262.72 489.872C1433.15 513.099 1525.96 605.867 1717.46 590.571C1738.18 588.924 1759.92 587.986 1782.78 586.021C2042.44 563.555 2203.6 381.666 2294.53 292.032M-340.115 52.2879C-207.296 263.724 -43.7402 392.306 119.066 473.744C343.782 586.163 568.715 596.856 704.721 598.484C914.742 600.981 1070.39 444.727 1281.36 475.921C1446.62 500.441 1537.18 600.68 1731.16 605.849C1751.61 606.398 1773.09 605.336 1795.76 603.99C2055.18 588.5 2210.17 382.906 2296.03 271.691M-340.551 26.635C-206.737 251.951 -40.3083 392.324 125.494 480.719C355.943 603.583 586.037 619.959 723.555 617.427C934.053 613.55 1096 429.13 1300.02 461.971C1460.1 487.783 1548.84 606.734 1744.86 621.127C1765.01 622.614 1786.26 622.738 1808.74 621.959C2067.91 613.975 2216.75 384.162 2297.54 251.331M-341 1C-17.6611 574.708 503.946 647.913 742.362 636.388C953.364 626.173 1121.59 413.551 1318.63 448.038C1489.09 477.869 1577.37 641.257 1821.68 639.964C2080.58 638.583 2223.28 385.437 2299 231.025" stroke="#00635E" stroke-width="1.59507" stroke-miterlimit="10"/>
</svg>
